/* XPM */
static char *_1e23026ac4a4dfcd9fde8c46b527764ce2jAe0m548dYo2a[] = {
/* columns rows colors chars-per-pixel */
"16 16 144 2 ",
"   c None",
".  c black",
"X  c #010101",
"o  c #020202",
"O  c gray8",
"+  c #161616",
"@  c gray16",
"#  c gray19",
"$  c #353535",
"%  c gray21",
"&  c #7D2700",
"*  c #7E2900",
"=  c #6C4C17",
"-  c #6E501B",
";  c #4E433D",
":  c #19334B",
">  c #1E3E5A",
",  c #343B43",
"<  c #3E444B",
"1  c #28527D",
"2  c #30607F",
"3  c #484A4C",
"4  c #4C5459",
"5  c #4D575E",
"6  c #5D5D5D",
"7  c #505C63",
"8  c #505E67",
"9  c gray40",
"0  c DimGray",
"q  c #6A6A6A",
"w  c #6C6C6C",
"e  c #6D6D6D",
"r  c gray43",
"t  c gray44",
"y  c #717171",
"u  c #727272",
"i  c #862900",
"p  c #872900",
"a  c #8F2D00",
"s  c #823000",
"d  c #843300",
"f  c #8A5707",
"g  c #8C590A",
"h  c #A86E13",
"j  c #B17414",
"k  c #CC7B02",
"l  c #CC7B03",
"z  c #C07E15",
"x  c #CD810D",
"c  c #DA880D",
"v  c #E38A06",
"b  c #EA8C00",
"n  c #EB8C00",
"m  c #F39100",
"M  c #F59200",
"N  c #FE9700",
"B  c #FE9800",
"V  c #FF9800",
"C  c #C38526",
"Z  c #C1862C",
"A  c #8E8255",
"S  c #8C8256",
"D  c #CAA265",
"F  c #CAA368",
"G  c #2B5987",
"H  c #326485",
"J  c #3B76A0",
"K  c #3972AB",
"L  c #3874AF",
"P  c #3F7EAB",
"I  c #446282",
"U  c #4A6582",
"Y  c #506884",
"T  c #516A86",
"R  c #55718F",
"E  c #557292",
"W  c #6C7E80",
"Q  c #3E80BE",
"!  c #6C8682",
"~  c #678688",
"^  c #69838D",
"/  c #628192",
"(  c #62859D",
")  c #6F8EAA",
"_  c #7E97AF",
"`  c #3F82C1",
"'  c #4288C6",
"]  c #4389C7",
"[  c #4991C0",
"{  c #4A94C3",
"}  c #4A96CF",
"|  c #4B96CF",
" . c #4E9CCF",
".. c #509FD3",
"X. c #52A1D5",
"o. c #53A5DB",
"O. c #58AEE6",
"+. c #58AFE6",
"@. c #838383",
"#. c gray53",
"$. c #8B8B8B",
"%. c gray56",
"&. c gray59",
"*. c #979797",
"=. c #99A1A9",
"-. c #A0A0A0",
";. c gray63",
":. c #A7A7A7",
">. c #A2A8AF",
",. c gray66",
"<. c #A9A9A9",
"1. c #AAAAAA",
"2. c gray67",
"3. c gray68",
"4. c #AFAFAF",
"5. c #B1B1B1",
"6. c #B6B6B6",
"7. c #B2B7BB",
"8. c #BBBBBB",
"9. c gray74",
"0. c #CCB085",
"q. c #CCB086",
"w. c #CCB796",
"e. c #CCB797",
"r. c #CCBA9E",
"t. c #B1BAC2",
"y. c #BFC2C5",
"u. c #C0C0C0",
"i. c #C1C1C1",
"p. c #C3C3C3",
"a. c #C6C6C6",
"s. c gray78",
"d. c #CBC9C6",
"f. c #C0C4C8",
"g. c #C8C8C8",
"h. c #CDCDCD",
"j. c gray85",
"k. c gray89",
"l. c #E4E4E4",
"z. c #E9E9E9",
"x. c #EAEAEA",
"c. c gray97",
"v. c gray98",
"b. c #FEFEFE",
/* pixels */
"  ,.                        ,.  ",
",.b.u     2 [ +.+.{ H     r b.3.",
"  r l.7  .o.~ S S ! X...7 l.w   ",
"    4 l.^ z B B B N x W l.5     ",
"    J ( c B M n n m B v / P     ",
"    | 3 d * i a a i & s ; |     ",
"  f l C D q.w.r.r.e.q.F Z l g   ",
"  = j d.5.+ # k.z.% + ,.j.h -   ",
"  : ] t.% . . @.%.. . @ f.] >   ",
"    Q ) 0 . . 6.p.. . 6 _ `     ",
"    1 L 7.3.s.#.$.h.3.y.K G     ",
"      E g.=.c.z.z.v.>.p.E       ",
"      l.T I &.8.9.*.U T l.      ",
"  u l.    , -.u.p.;.<     l.u   ",
",.b.u       9.p.g.p.      r b.,.",
"  ,.          9 0           ,.  "
};
